<?xml version="1.0" encoding="UTF-8" standalone="no"?>
<!DOCTYPE svg PUBLIC "-//W3C//DTD SVG 1.1//EN" "http://www.w3.org/Graphics/SVG/1.1/DTD/svg11.dtd">
<svg width="52" height="52" viewBox="0 0 52 52" version="1.1" xmlns="http://www.w3.org/2000/svg" xmlns:xlink="http://www.w3.org/1999/xlink" xml:space="preserve" xmlns:serif="http://www.serif.com/" style="fill-rule:evenodd;clip-rule:evenodd;">
    <g transform="matrix(33.333333,0,0,33.333333,-99.998598,-99.998598)">
        <g transform="matrix(0.085,0,0,0.085,2.745,2.745)">
            <path d="M3,4L3,20C3,20.549 3.451,21 4,21L20,21C20.549,21 21,20.549 21,20L21,4C21,3.451 20.549,3 20,3L4,3C3.451,3 3,3.451 3,4ZM11,7L13,7L13,9L11,9L11,7ZM11,11L13,11L13,17L11,17L11,11Z" style="fill:rgb(98,124,254);fill-rule:nonzero;"/>
        </g>
    </g>
</svg>
